<svg width="20" height="20" viewBox="0 0 20 20" fill="none" xmlns="http://www.w3.org/2000/svg">
<path d="M10 9.58332C9.44747 9.58332 8.91756 9.36383 8.52686 8.97313C8.13616 8.58243 7.91667 8.05252 7.91667 7.49999C7.91667 6.94746 8.13616 6.41755 8.52686 6.02685C8.91756 5.63615 9.44747 5.41666 10 5.41666C10.5525 5.41666 11.0824 5.63615 11.4731 6.02685C11.8638 6.41755 12.0833 6.94746 12.0833 7.49999C12.0833 7.77358 12.0294 8.04449 11.9248 8.29725C11.8201 8.55001 11.6666 8.77967 11.4731 8.97313C11.2797 9.16658 11.05 9.32004 10.7973 9.42474C10.5445 9.52944 10.2736 9.58332 10 9.58332ZM10 1.66666C8.45291 1.66666 6.96917 2.28124 5.87521 3.3752C4.78125 4.46916 4.16667 5.95289 4.16667 7.49999C4.16667 11.875 10 18.3333 10 18.3333C10 18.3333 15.8333 11.875 15.8333 7.49999C15.8333 5.95289 15.2188 4.46916 14.1248 3.3752C13.0308 2.28124 11.5471 1.66666 10 1.66666Z" fill="black"/>
</svg>
